<svg xmlns="http://www.w3.org/2000/svg" id="Ebene_1" viewBox="0 0 600 197.58804">
  
  <path d="M80.45446,1.0001h517.48342v115.33026c0,43.56468-35.36899,78.93367-78.93367,78.93367H1.52079v-115.33026C1.52079,36.36909,36.88978,1.0001,80.45446,1.0001Z" fill="#f0c52c"/>
  <g>
    <path d="M39.5057,44.5584h76.97761v23.12746h-46.86345v21.95567h43.93634v23.02981h-43.93634v43.23731h-30.11417V44.5584Z" fill="#fff"/>
    <path d="M141.9627,155.90865l-24.20042-111.35025h32.33391c3.14265,21.77228,7.97392,55.0279,9.95668,78.18037h.56208c4.21917-23.25845,10.60212-52.13771,15.71443-78.18037h27.20016c4.41328,21.62461,11.0475,53.19042,14.61647,76.93712h.56208c2.60796-22.82975,9.3815-60.48556,11.6322-76.93712h29.49493l-26.06528,111.35025h-31.47292c-4.3466-22.61421-10.25916-48.09597-13.81979-69.81704h-.44776c-3.78094,21.36977-10.23772,48.9129-14.53668,69.81704h-31.53009Z" fill="#fff"/>
    <path d="M256.39129,136.68836l51.15407-68.94534h-48.26507v-23.18462h83.48917v21.89732l-48.82596,66.15519h51.85786l-3.53682,23.29775h-85.87325v-19.22029Z" fill="#fff"/>
  </g>
  <path d="M449.71104,83.06c-84.14875,8.8221-109.55803,92.15095-114.47846,112.20394h95.40271c6.63898-32.59277,25.16709-77.03939,76.65013-88.97437,44.73093-10.36976,74.96582-53.41043,90.65242-82.25352V1h-14.64118c-32.08874,50.69634-61.18086,74.46894-133.58562,82.06Z" fill="#fff"/>
</svg>